# xmcd
#
# Track frame offsets:
#	150
#	16212
#	33364
#	50592
#	69584
#	85244
#	104367
#	119612
#	139064
#	156967
#	171842
#	187145
#	203487
#	223899
#	240068
#	259624
#
# Disc length: 3633 seconds
#
# Revision: 4
# Processed by: cddbd v1.5.2PL0 Copyright (c) Steve Scherf et al.
# Submitted via: EasyCDDAExtractor 15.3.0.1
#
DISCID=df0e2f10
DTITLE=Ana Gabriel - Historia De Una Reina
DYEAR=2005
DGENRE=Latin
TTITLE0=Quien Como Tu
TTITLE1=Simplemente Amigos
TTITLE2=Es El Amor Quien Llega
TTITLE3=Es Demasiado Tarde
TTITLE4=Pecado Original
TTITLE5=Evidencias
TTITLE6=Ahora
TTITLE7=Cosas Del Amor
TTITLE8=En La Oscuridad
TTITLE9=Un Viejo Amor
TTITLE10=Ay Amor
TTITLE11=Con Un Mismo Corazon
TTITLE12=Luna
TTITLE13=La Reina
TTITLE14=Huelo A Soledad
TTITLE15=Mi Gusto Es
EXTD=
EXTT0=
EXTT1=
EXTT2=
EXTT3=
EXTT4=
EXTT5=
EXTT6=
EXTT7=
EXTT8=
EXTT9=
EXTT10=
EXTT11=
EXTT12=
EXTT13=
EXTT14=
EXTT15=
PLAYORDER=
